<?xml version="1.0" standalone="no"?>
<!DOCTYPE svg PUBLIC "-//W3C//DTD SVG 20010904//EN"
 "http://www.w3.org/TR/2001/REC-SVG-20010904/DTD/svg10.dtd">
<svg version="1.0" xmlns="http://www.w3.org/2000/svg"
 width="2850.000000pt" height="2850.000000pt" viewBox="0 0 2850.000000 2850.000000"
 preserveAspectRatio="xMidYMid meet">
<metadata>
Created by potrace 1.14, written by Peter Selinger 2001-2017
</metadata>
<g transform="translate(0.000000,2850.000000) scale(0.100000,-0.100000)"
fill="#000000" stroke="none">
<path d="M13264 28486 c-161 -52 -196 -130 -170 -381 4 -38 9 -72 11 -75 1 -3
6 -42 9 -86 4 -45 9 -93 11 -105 3 -23 13 -141 20 -252 8 -125 16 -236 20
-282 2 -27 7 -99 11 -160 4 -60 8 -128 9 -150 20 -286 26 -779 12 -995 -4 -63
-10 -155 -13 -205 -3 -49 -7 -261 -9 -470 -2 -209 -6 -400 -9 -425 -3 -25 -8
-81 -11 -125 -5 -76 -12 -139 -20 -195 -2 -14 -7 -52 -10 -85 -3 -33 -8 -67
-10 -75 -2 -8 -7 -40 -10 -70 -4 -30 -9 -58 -11 -62 -3 -4 -7 -26 -10 -50 -5
-36 -49 -259 -58 -293 -2 -5 -6 -28 -11 -50 -9 -45 -32 -96 -49 -107 -22 -15
-64 9 -314 176 -218 146 -579 369 -742 458 -25 14 -99 56 -165 93 -66 37 -138
78 -160 90 -385 212 -687 401 -840 525 -49 40 -196 178 -326 307 -130 129
-252 244 -270 256 -170 104 -409 80 -504 -51 -19 -26 -38 -64 -44 -86 -20 -78
-1 -223 66 -521 13 -60 26 -117 28 -125 8 -38 110 -439 142 -560 19 -74 37
-146 40 -159 2 -14 6 -28 9 -33 3 -4 7 -17 9 -28 4 -23 63 -252 107 -420 16
-63 32 -126 34 -140 3 -14 8 -34 11 -45 4 -11 8 -24 9 -30 1 -5 14 -57 29
-115 15 -58 28 -112 30 -120 4 -15 46 -179 126 -490 59 -228 112 -399 185
-597 35 -97 62 -178 59 -181 -2 -3 -32 3 -65 12 -34 10 -69 19 -78 22 -9 2
-44 11 -77 19 -33 9 -68 18 -78 20 -10 2 -26 6 -35 9 -9 3 -28 7 -42 10 -14 2
-46 9 -73 15 -26 6 -63 13 -82 16 -32 4 -78 11 -130 21 -159 31 -313 46 -490
49 -257 3 -348 25 -462 112 -121 93 -286 125 -445 88 -105 -24 -294 -84 -363
-115 -11 -5 -69 -28 -130 -50 -121 -46 -151 -68 -199 -150 -48 -82 -66 -134
-72 -209 -16 -186 78 -346 268 -457 160 -94 230 -177 380 -454 52 -95 153
-243 209 -305 30 -32 134 -140 232 -240 99 -99 211 -215 250 -258 119 -130
319 -330 372 -373 28 -23 103 -74 168 -114 81 -50 117 -78 115 -89 -3 -14 -45
-16 -391 -17 -213 -1 -404 2 -425 7 -20 4 -71 15 -112 25 -71 15 -273 76 -315
95 -11 4 -56 20 -100 34 -285 89 -490 61 -641 -90 -184 -184 -216 -454 -78
-660 86 -128 233 -321 515 -675 300 -377 342 -425 443 -501 50 -37 136 -113
191 -170 159 -162 297 -265 451 -335 81 -37 221 -79 294 -89 82 -11 119 -22
164 -49 58 -34 164 -124 224 -190 172 -188 178 -192 627 -426 160 -84 171 -90
205 -111 482 -309 840 -453 1300 -524 19 -3 46 -7 60 -10 14 -2 50 -7 80 -10
30 -3 66 -8 80 -10 14 -3 54 -7 90 -10 36 -3 81 -7 100 -10 32 -4 102 -9 270
-20 93 -7 370 -15 625 -20 121 -2 231 -6 245 -9 14 -3 43 -7 65 -10 22 -2 87
-14 145 -26 58 -11 116 -23 130 -26 14 -3 39 -9 56 -15 17 -5 40 -11 50 -14
10 -2 87 -20 169 -40 191 -47 209 -48 268 -18 26 14 49 29 52 33 13 21 -44
110 -116 183 -86 85 -159 178 -159 201 0 19 -70 91 -165 171 -132 111 -255
257 -402 480 -122 185 -455 790 -638 1160 -82 166 -95 202 -169 480 -15 55
-57 170 -93 255 -109 255 -126 316 -127 445 0 223 21 423 43 413 4 -2 54 -34
111 -71 58 -38 166 -107 240 -155 242 -155 305 -202 630 -467 131 -106 520
-433 530 -444 3 -4 39 -35 80 -69 41 -35 86 -74 100 -86 14 -13 66 -58 115
-102 147 -129 156 -137 208 -184 44 -40 108 -112 236 -270 74 -91 178 -194
236 -233 135 -91 263 -211 369 -347 36 -47 70 -90 76 -97 5 -6 41 -60 81 -120
76 -116 107 -172 140 -255 11 -29 26 -66 33 -83 8 -16 26 -61 41 -100 59 -146
133 -278 180 -317 11 -10 58 -37 103 -60 156 -79 189 -140 148 -266 -20 -60
-24 -63 -79 -68 -65 -6 -248 -24 -287 -29 -38 -5 -114 -12 -200 -20 -30 -2
-80 -7 -110 -9 -61 -6 -189 -13 -350 -21 -577 -26 -1943 -26 -1990 0 -3 2 -48
6 -100 10 -52 4 -106 9 -120 11 -14 3 -322 7 -685 9 -405 3 -687 9 -730 16
-59 9 -147 27 -320 64 -62 14 -240 14 -295 2 -141 -34 -211 -87 -224 -173 -12
-75 8 -107 84 -129 3 -1 12 -4 20 -8 8 -3 33 -11 55 -17 22 -7 74 -28 115 -48
188 -88 229 -105 313 -133 224 -76 407 -95 677 -74 170 14 269 12 600 -10 148
-9 220 -15 425 -30 28 -2 97 -7 155 -10 58 -3 125 -8 150 -10 45 -4 184 -12
340 -20 456 -22 1322 -23 1555 0 22 2 74 6 115 10 126 9 268 24 400 40 19 3
55 7 80 10 25 3 56 8 70 10 26 4 90 13 137 20 15 2 42 6 58 9 17 3 73 12 125
21 230 39 676 142 721 166 11 5 19 7 19 5 0 -7 149 57 225 96 96 49 164 87
438 246 273 159 361 226 587 452 173 172 201 198 310 285 244 195 439 456 580
775 36 83 139 367 139 385 0 3 7 31 16 63 10 31 18 64 20 72 13 64 113 448
142 540 19 63 81 237 138 385 108 281 141 389 221 715 60 243 63 316 16 455
-54 159 -111 237 -217 297 -202 114 -426 150 -623 102 -139 -34 -228 -82 -317
-171 -68 -69 -74 -76 -207 -258 -116 -159 -164 -215 -288 -331 -60 -56 -193
-193 -300 -310 -25 -27 -74 -80 -109 -119 -36 -38 -85 -92 -111 -120 -25 -27
-97 -106 -160 -175 -63 -69 -133 -145 -156 -170 -22 -25 -92 -101 -155 -170
-124 -137 -175 -193 -296 -320 -179 -189 -169 -173 -203 -300 -17 -63 -38
-135 -45 -160 -7 -25 -27 -97 -45 -160 -28 -105 -70 -256 -106 -385 -7 -27
-32 -115 -53 -194 -22 -79 -42 -145 -44 -147 -6 -7 -36 96 -43 146 -12 93 -2
294 21 410 2 14 7 41 10 60 4 19 10 53 16 75 5 22 12 49 14 60 45 200 149 428
239 519 84 84 223 278 696 962 102 148 212 302 244 344 121 152 292 301 496
431 139 88 244 165 343 254 160 143 366 302 532 413 87 58 204 142 260 185
128 102 337 311 449 452 87 109 248 344 301 440 15 28 41 73 56 100 16 28 64
122 108 210 192 391 275 690 275 995 0 204 -42 410 -98 483 -70 92 -122 100
-336 52 -55 -12 -260 -85 -615 -218 -758 -285 -1030 -388 -1050 -397 -11 -5
-94 -36 -185 -70 -91 -34 -178 -68 -195 -75 -16 -8 -31 -10 -33 -6 -3 8 50
252 104 481 37 155 76 285 175 585 141 424 186 575 215 725 3 14 7 32 9 40 3
8 7 33 10 55 4 22 8 51 11 65 22 129 22 877 0 1090 -2 19 -7 76 -11 125 -3 50
-8 104 -10 120 -19 158 -24 396 -12 555 5 71 3 92 -12 126 -53 117 -256 175
-392 111 -62 -29 -63 -30 -224 -203 -121 -130 -429 -440 -676 -679 -274 -267
-414 -442 -541 -680 -36 -66 -77 -142 -92 -170 -60 -107 -182 -279 -346 -490
-375 -480 -425 -559 -560 -895 -35 -85 -64 -156 -65 -157 -1 -2 -18 84 -39
190 -21 105 -53 262 -72 347 -19 85 -42 184 -50 220 -23 104 -48 212 -94 400
-23 96 -43 182 -45 190 -31 143 -130 506 -174 640 -49 146 -187 514 -221 585
-5 11 -32 76 -61 145 -28 69 -69 163 -91 210 -22 47 -58 126 -81 175 -58 125
-422 854 -501 1001 -35 67 -110 200 -167 295 -56 96 -129 219 -161 274 -33 55
-63 107 -68 115 -19 30 -73 126 -103 180 -71 131 -134 181 -237 186 -37 2 -83
-2 -106 -10z m667 -1843 c135 -278 199 -422 319 -728 45 -115 88 -223 95 -240
17 -39 136 -369 168 -466 27 -79 60 -206 72 -274 4 -22 9 -51 11 -65 24 -134
61 -291 98 -420 43 -149 93 -331 101 -368 2 -9 15 -63 29 -119 44 -179 98
-471 111 -603 3 -31 8 -71 10 -90 17 -126 26 -926 12 -1045 -3 -27 -6 -61 -6
-75 -3 -64 -11 -59 -257 146 -499 415 -633 532 -780 677 -159 158 -214 199
-359 273 -130 66 -151 81 -165 114 -12 28 -6 47 63 238 41 114 84 241 96 282
19 69 74 314 86 385 3 17 7 41 10 55 8 42 34 192 40 240 3 25 8 56 10 70 2 14
6 52 10 85 3 33 9 83 12 110 3 28 7 223 9 435 3 390 11 843 20 1090 8 221 13
392 13 447 1 40 6 57 23 73 12 11 23 20 25 20 2 0 58 -111 124 -247z m3949
-964 l33 -12 -6 -141 c-4 -78 -9 -159 -12 -181 -33 -244 -37 -305 -40 -580 -1
-137 -5 -268 -9 -290 -4 -22 -14 -78 -22 -125 -8 -47 -18 -98 -20 -115 -15
-84 -71 -275 -169 -575 -67 -206 -73 -225 -120 -400 -42 -151 -54 -197 -90
-335 -39 -145 -72 -247 -169 -510 -36 -99 -80 -218 -97 -265 -57 -155 -316
-702 -429 -905 -54 -98 -149 -254 -213 -350 -53 -79 -98 -144 -292 -415 -184
-257 -239 -330 -245 -323 -4 4 -40 96 -80 203 -153 415 -157 422 -528 989 -87
132 -88 145 -26 276 21 44 52 149 84 285 81 335 109 442 122 458 7 8 46 30 88
51 52 25 95 56 140 101 88 88 137 187 194 400 25 91 54 190 65 220 11 30 27
75 36 100 17 47 131 282 163 337 55 93 209 315 232 333 14 11 154 188 188 239
20 29 107 160 192 291 188 287 246 370 357 508 83 103 302 361 333 392 8 8 47
51 85 95 39 44 80 91 93 105 13 14 46 53 75 87 29 35 52 63 53 63 1 0 16 -5
34 -11z m-7389 -1007 c79 -51 196 -127 259 -168 63 -40 120 -78 127 -84 7 -5
15 -10 18 -10 3 0 38 -22 78 -49 202 -136 451 -285 617 -369 165 -83 219 -114
350 -198 19 -12 91 -57 160 -99 331 -206 481 -320 645 -494 165 -175 202 -210
290 -268 77 -52 531 -395 545 -412 3 -4 25 -22 50 -41 25 -19 160 -129 300
-243 261 -214 402 -347 480 -452 25 -33 48 -62 51 -65 4 -3 41 -59 84 -125
118 -182 131 -203 183 -295 65 -116 105 -178 185 -285 88 -117 139 -208 191
-335 15 -36 31 -74 36 -85 6 -11 32 -88 59 -170 29 -89 75 -199 111 -270 341
-656 383 -762 426 -1070 3 -27 8 -58 10 -68 8 -45 16 -280 19 -572 3 -290 8
-426 20 -540 4 -38 18 -268 19 -311 0 -24 -23 -84 -34 -84 -4 0 -54 50 -111
112 -282 304 -378 401 -565 568 -176 158 -339 303 -444 395 -69 60 -138 121
-155 136 -16 14 -68 59 -115 99 -85 72 -166 141 -206 177 -12 10 -43 36 -70
58 -26 22 -89 74 -139 115 -160 134 -279 218 -516 368 -46 30 -119 77 -163
105 -43 29 -87 57 -98 63 -34 20 -70 58 -110 119 -101 151 -239 250 -489 354
-278 115 -515 321 -685 596 -27 44 -56 94 -64 110 -20 41 -102 163 -135 200
-46 52 -109 145 -185 275 -93 159 -128 206 -231 311 -180 183 -274 364 -389
744 -28 94 -65 213 -83 265 -17 52 -32 97 -32 100 -2 5 -2 7 -50 125 -40 97
-45 126 -50 286 -3 125 -28 252 -76 404 -11 33 -21 69 -23 80 -2 11 -14 54
-26 95 -12 41 -25 89 -30 105 -4 17 -31 107 -58 200 -84 289 -120 438 -137
580 -15 119 -15 126 -2 118 8 -4 79 -50 158 -101z m9385 -2034 c-13 -68 -103
-318 -169 -473 -47 -111 -153 -319 -193 -383 -19 -29 -34 -56 -34 -61 0 -5 -3
-11 -7 -13 -5 -1 -17 -19 -27 -38 -91 -163 -367 -487 -566 -665 -95 -85 -368
-297 -775 -601 -530 -397 -676 -521 -807 -683 -84 -104 -132 -181 -222 -356
-43 -82 -84 -157 -92 -166 -8 -8 -14 -19 -14 -22 0 -4 -24 -44 -53 -90 -107
-164 -184 -300 -317 -552 -145 -276 -183 -337 -204 -329 -10 4 -13 35 -13 127
0 67 -3 149 -6 182 -4 33 -9 89 -12 125 -3 36 -8 81 -10 100 -2 19 -7 69 -11
110 -3 41 -8 82 -9 90 -2 8 -6 53 -10 100 -4 47 -8 92 -10 100 -2 8 -6 60 -10
114 -4 55 -9 109 -11 120 -2 12 -5 59 -5 106 -2 133 15 165 265 505 8 11 55
74 104 140 180 244 310 421 347 475 21 30 42 59 47 65 44 51 157 223 208 315
147 267 205 337 540 645 41 38 134 124 205 191 262 245 414 366 525 417 35 16
150 51 255 77 104 27 390 116 635 198 245 83 448 150 453 151 4 1 5 -9 3 -21z
m-11241 -826 c22 -11 62 -39 88 -61 113 -94 217 -122 437 -115 329 11 408 11
493 -2 170 -26 865 -194 1115 -270 52 -15 95 -36 117 -55 33 -30 93 -116 370
-539 242 -370 363 -512 630 -740 167 -143 213 -190 225 -226 7 -22 9 -75 5
-151 -4 -65 -8 -145 -10 -178 -2 -33 -6 -96 -10 -140 -3 -44 -8 -102 -10 -130
-13 -166 -22 -230 -37 -256 -18 -29 -74 -61 -95 -55 -10 3 -29 7 -43 10 -14 2
-60 11 -102 20 -42 9 -94 19 -115 22 -21 3 -41 8 -44 10 -3 2 -21 6 -40 9 -46
7 -151 32 -219 52 -199 57 -313 108 -415 185 -68 51 -75 57 -215 192 -47 46
-139 127 -205 182 -66 54 -131 109 -145 120 -87 74 -319 261 -395 318 -49 37
-97 73 -105 79 -8 7 -67 47 -131 89 -185 124 -236 176 -482 500 -48 64 -114
142 -145 175 -115 117 -165 182 -286 378 -30 50 -60 95 -66 102 -5 7 -10 15
-10 19 0 23 -151 187 -225 244 -77 59 -235 133 -308 144 -32 4 -27 14 20 34
39 16 159 57 197 66 26 6 127 -14 161 -32z m10620 -2171 c-3 -6 -8 -29 -11
-53 -6 -40 -17 -102 -29 -154 -8 -34 -46 -216 -51 -244 -3 -14 -7 -33 -10 -42
-3 -9 -7 -25 -9 -35 -40 -196 -103 -394 -243 -758 -54 -143 -109 -294 -122
-335 -12 -41 -26 -88 -31 -105 -5 -16 -25 -95 -43 -175 -66 -282 -151 -478
-282 -650 -60 -79 -556 -563 -719 -701 -22 -19 -42 -36 -45 -39 -3 -3 -37 -31
-77 -63 -123 -98 -250 -174 -473 -283 -118 -58 -241 -118 -272 -134 -31 -17
-60 -30 -63 -30 -19 0 54 270 96 354 68 136 132 307 164 436 19 77 35 151 40
180 3 19 8 42 10 50 6 20 27 140 41 235 6 36 44 232 50 260 3 11 7 31 10 45
16 79 104 314 163 435 148 300 329 530 641 815 51 47 107 99 124 115 18 17 54
50 82 74 27 24 78 72 114 105 36 34 103 95 150 136 46 41 98 89 115 105 17 17
72 66 121 110 49 44 101 91 115 105 55 53 182 165 197 174 19 11 221 74 240
75 7 1 11 -3 7 -8z m-11101 -416 c94 -13 135 -28 197 -71 168 -117 409 -162
671 -125 66 9 332 7 383 -4 173 -35 221 -47 290 -70 44 -15 125 -46 180 -70
123 -52 124 -53 210 -60 39 -3 93 -8 120 -11 48 -5 63 -7 138 -20 153 -26 345
-91 535 -181 340 -161 598 -239 857 -259 154 -12 320 -68 415 -139 64 -47 127
-114 177 -188 55 -80 59 -88 198 -367 54 -107 112 -222 130 -255 18 -33 86
-157 150 -275 65 -118 133 -244 153 -280 19 -36 52 -96 72 -135 21 -38 49 -90
62 -115 37 -69 86 -158 125 -228 l35 -63 -73 6 c-41 3 -94 7 -119 9 -25 3 -81
7 -125 10 -44 4 -105 8 -135 11 -156 14 -188 16 -220 20 -19 2 -64 6 -100 10
-36 3 -76 8 -90 10 -14 2 -50 6 -80 10 -63 7 -316 51 -375 65 -183 43 -222 53
-263 66 -47 16 -193 87 -294 142 -29 16 -109 60 -178 97 -220 120 -253 138
-429 240 -268 154 -296 176 -451 350 -60 68 -137 145 -171 171 -58 44 -167
105 -234 130 -82 31 -207 70 -255 79 -113 23 -262 82 -345 139 -177 120 -496
424 -676 642 -62 77 -157 189 -210 251 -111 130 -237 290 -301 383 -64 94 -63
92 -36 86 12 -3 41 -8 62 -11z"/>
<path d="M15310 14477 c-3 -3 -42 -7 -87 -11 -106 -8 -341 -49 -468 -81 -230
-59 -486 -154 -742 -274 -141 -66 -291 -129 -323 -136 -8 -2 -28 -8 -45 -15
-46 -17 -224 -60 -280 -66 -27 -3 -54 -8 -59 -11 -20 -13 -315 -11 -406 2
-221 32 -422 104 -610 218 -293 178 -574 285 -850 321 -48 7 -259 8 -300 2
-14 -2 -45 -7 -70 -11 -70 -10 -199 -44 -260 -67 -105 -41 -257 -118 -282
-143 -61 -61 -38 -232 43 -317 39 -41 47 -43 149 -28 166 23 444 31 595 17
258 -25 437 -94 730 -285 56 -36 293 -145 381 -176 112 -38 296 -82 389 -91
33 -4 71 -8 85 -11 36 -6 319 -6 360 0 19 3 58 8 85 11 53 6 157 22 190 29 11
3 49 12 85 20 178 40 387 115 655 236 424 191 726 289 980 316 27 3 66 7 85
10 119 16 413 -4 600 -41 14 -3 57 -11 95 -19 39 -8 140 -28 225 -45 85 -17
241 -45 345 -61 253 -39 316 -53 410 -95 43 -19 213 -81 260 -94 134 -39 230
-50 397 -46 189 5 239 14 262 50 29 45 45 126 42 220 -3 96 -20 146 -56 165
-21 11 -171 44 -250 55 -211 29 -343 60 -379 89 -8 6 -15 10 -15 8 -1 -5 -38
10 -151 60 -112 51 -167 69 -275 93 -41 9 -102 22 -135 30 -69 16 -208 45
-245 51 -14 3 -38 7 -55 11 -16 4 -32 7 -35 8 -10 2 -105 18 -120 20 -8 1 -60
10 -115 19 -124 22 -139 24 -194 31 -23 3 -57 8 -75 11 -17 3 -51 8 -76 10
-63 7 -485 16 -490 11z"/>
<path d="M11012 13067 c-5 -7 -17 -27 -27 -46 -17 -34 -15 -40 35 -91 3 -3 43
-47 90 -99 108 -120 122 -135 186 -187 105 -85 454 -231 969 -405 33 -12 114
-40 180 -63 205 -73 349 -107 525 -124 139 -13 522 -5 617 12 10 2 45 7 78 10
33 4 71 9 85 11 14 2 45 7 70 10 25 3 56 8 70 10 14 3 41 7 60 10 34 6 58 10
120 20 64 11 87 14 150 25 36 5 76 12 90 15 179 34 317 63 530 110 140 31 266
59 280 61 14 3 84 16 155 30 72 14 141 27 155 29 67 12 97 17 125 20 67 7 141
16 165 20 131 21 523 21 656 0 31 -5 63 -10 129 -21 59 -10 73 -9 150 5 39 6
84 14 100 17 63 9 92 16 138 31 42 13 52 21 68 57 42 92 16 168 -89 268 -61
59 -87 69 -257 107 -110 24 -291 57 -365 66 -30 4 -64 9 -74 11 -130 24 -569
23 -696 -2 -14 -2 -38 -6 -55 -9 -16 -2 -55 -9 -85 -15 -30 -6 -66 -13 -80
-16 -14 -3 -43 -10 -65 -16 -22 -5 -49 -12 -59 -14 -11 -2 -74 -15 -140 -29
-232 -49 -246 -52 -301 -61 -16 -2 -66 -11 -110 -19 -44 -8 -96 -17 -115 -20
-19 -3 -60 -10 -90 -15 -30 -5 -73 -12 -95 -15 -22 -4 -47 -8 -55 -10 -8 -3
-35 -7 -60 -10 -25 -3 -56 -7 -70 -10 -14 -3 -38 -7 -55 -9 -16 -3 -88 -14
-160 -26 -71 -12 -142 -23 -157 -26 -41 -6 -74 -11 -173 -28 -49 -8 -115 -18
-145 -21 -30 -3 -71 -8 -90 -10 -52 -6 -278 -6 -335 0 -165 18 -216 31 -645
155 -36 11 -128 35 -205 55 -138 36 -158 41 -192 49 -10 2 -117 30 -238 61
-208 54 -390 98 -445 109 -14 2 -50 10 -80 16 -30 6 -73 13 -95 16 -22 3 -45
7 -52 9 -6 2 -16 -2 -21 -8z"/>
<path d="M12025 11553 c-11 -2 -81 -15 -155 -29 -164 -31 -184 -38 -209 -77
-38 -61 -7 -147 91 -246 106 -107 247 -178 462 -231 130 -32 135 -33 253 -50
127 -18 140 -19 195 -25 29 -3 62 -7 73 -9 28 -5 159 -19 290 -31 33 -3 76 -8
95 -10 19 -2 76 -7 125 -10 50 -3 117 -8 150 -10 118 -9 371 -22 790 -40 83
-4 177 -8 210 -10 232 -12 393 -18 475 -18 94 0 268 10 305 17 11 2 49 7 85
11 36 3 76 8 90 10 22 3 98 12 170 20 14 1 45 5 70 9 75 12 93 15 138 21 24 3
53 7 65 10 24 5 49 10 146 25 36 6 67 13 70 15 4 2 27 6 51 10 78 12 304 73
386 104 110 43 218 108 291 177 l62 59 -40 101 c-59 149 -117 200 -241 211
-47 4 -85 -3 -224 -42 -92 -26 -174 -49 -183 -51 -156 -39 -273 -66 -301 -70
-19 -2 -44 -6 -55 -9 -11 -2 -42 -7 -70 -10 -27 -3 -63 -8 -80 -10 -324 -41
-1143 -57 -1512 -30 -164 12 -224 15 -353 20 -463 18 -539 23 -700 41 -131 14
-363 56 -475 86 -22 5 -47 11 -55 13 -44 9 -219 45 -245 50 -39 8 -214 14
-240 8z"/>
<path d="M12371 9927 c-45 -14 -107 -80 -119 -128 -20 -79 8 -200 60 -263 19
-23 66 -53 141 -90 165 -81 329 -131 502 -152 28 -4 52 -8 55 -9 12 -7 245
-18 380 -18 132 0 399 10 460 18 14 1 66 6 115 9 50 4 106 8 125 11 56 7 120
14 190 20 36 3 81 8 100 10 73 8 179 16 281 20 59 2 127 7 150 9 49 6 123 15
184 21 22 3 87 12 145 20 58 9 121 18 140 20 152 19 454 82 570 119 140 45
476 207 484 233 7 24 -1 68 -20 105 l-15 30 -597 -6 c-328 -3 -631 -7 -672
-10 -41 -3 -122 -8 -180 -11 -58 -3 -143 -8 -190 -11 -47 -2 -121 -7 -165 -9
-288 -17 -1308 -26 -1445 -13 -41 4 -151 21 -245 37 -272 48 -373 56 -434 38z"/>
<path d="M7235 8055 c-65 -32 -60 102 -62 -1720 -3 -1841 -7 -1718 63 -1791
19 -19 54 -44 77 -55 40 -18 75 -19 735 -19 l692 0 38 34 37 34 2 148 c2 166
-7 202 -56 232 -29 18 -63 19 -559 20 -290 0 -535 1 -544 1 -17 1 -18 80 -18
1517 0 1680 5 1565 -65 1598 -46 22 -296 22 -340 1z"/>
<path d="M10312 8050 c-18 -11 -39 -33 -45 -49 -9 -22 -12 -358 -11 -1417 l0
-1389 23 -85 c70 -267 259 -482 511 -583 214 -85 485 -72 684 32 221 116 372
308 437 552 l22 84 2 1385 c0 762 -3 1397 -7 1411 -5 15 -20 37 -34 50 -24 23
-33 24 -182 27 -143 2 -160 1 -190 -18 -18 -11 -37 -32 -43 -48 -7 -18 -11
-456 -13 -1397 -2 -1300 -3 -1373 -20 -1420 -64 -175 -243 -274 -429 -240 -86
16 -203 102 -245 179 -47 89 -45 13 -47 1476 -2 1262 -3 1378 -19 1407 -28 55
-57 63 -218 63 -126 0 -147 -3 -176 -20z"/>
<path d="M14005 8053 c-352 -73 -627 -374 -663 -723 -3 -36 -6 -528 -5 -1095
0 -1074 -1 -1028 38 -1187 10 -45 87 -189 129 -245 157 -207 378 -320 641
-329 191 -6 339 36 489 137 173 117 282 266 342 466 24 80 27 107 32 301 5
234 1 257 -50 294 -28 19 -42 21 -180 19 -233 -3 -236 -5 -236 -268 0 -232
-22 -299 -128 -392 -83 -73 -176 -102 -283 -89 -155 19 -280 131 -316 283 -9
37 -12 317 -10 1065 1 931 3 1019 18 1060 120 314 546 336 683 35 31 -68 36
-105 36 -275 0 -234 10 -244 241 -242 134 1 150 3 178 23 17 12 35 33 40 47
14 37 10 366 -6 448 -60 313 -292 564 -605 654 -96 28 -283 34 -385 13z"/>
<path d="M16550 8057 c-13 -7 -34 -26 -46 -44 l-21 -31 1 -1715 1 -1716 21
-28 c35 -47 57 -53 212 -53 108 0 150 4 172 15 62 32 60 2 60 815 l0 740 208
0 c161 0 221 -4 263 -16 127 -37 216 -122 258 -248 16 -46 18 -107 18 -637 0
-544 2 -588 18 -613 32 -49 60 -56 223 -56 l149 0 39 34 39 33 -1 589 c0 528
-3 662 -18 729 -26 119 -113 283 -199 372 l-40 42 45 53 c98 115 163 245 194
386 15 67 17 157 18 671 1 444 -2 600 -11 622 -24 57 -61 69 -223 69 -126 0
-149 -3 -177 -20 -17 -10 -37 -29 -43 -41 -9 -16 -13 -183 -14 -613 -3 -657 0
-627 -72 -733 -40 -59 -114 -112 -189 -138 -41 -13 -90 -16 -265 -17 l-215 0
-5 744 c-4 578 -8 748 -18 765 -25 44 -60 53 -214 53 -94 0 -151 -5 -168 -13z"/>
<path d="M19659 8053 c-56 -34 -54 -10 -55 -658 -1 -665 1 -685 62 -834 83
-201 240 -359 442 -447 42 -19 83 -34 90 -34 7 0 12 -13 12 -32 1 -18 1 -355
1 -748 0 -411 4 -730 9 -750 6 -22 22 -43 43 -57 31 -21 44 -23 185 -23 l152
0 38 34 37 34 3 771 c2 650 5 771 16 771 24 0 144 58 214 103 181 117 310 307
358 528 14 63 16 162 17 674 0 564 -1 602 -18 628 -32 50 -60 57 -217 57 -154
0 -177 -6 -212 -53 -20 -28 -21 -37 -22 -615 -1 -567 -1 -589 -21 -644 -35
-95 -99 -168 -189 -213 -54 -27 -68 -30 -159 -30 -83 0 -108 4 -149 23 -67 31
-127 82 -165 140 -61 95 -60 90 -61 724 0 378 -4 586 -11 601 -5 12 -25 33
-43 45 -31 21 -43 23 -183 21 -115 -1 -155 -4 -174 -16z"/>
<path d="M7905 3594 c-11 -2 -45 -10 -75 -16 -30 -6 -57 -12 -60 -13 -3 0 -21
-6 -40 -14 -296 -113 -502 -363 -549 -666 -13 -85 -11 -257 3 -318 15 -63 43
-113 138 -239 40 -53 80 -107 88 -119 8 -12 20 -27 25 -33 10 -11 54 -68 316
-416 86 -113 261 -344 390 -515 l234 -310 1 -75 c0 -41 -4 -91 -8 -110 -26
-104 -111 -204 -213 -251 -53 -24 -71 -27 -150 -26 -80 2 -98 6 -156 34 -79
39 -140 102 -177 181 -25 54 -27 67 -30 242 -6 268 -7 270 -237 270 -174 0
-205 -11 -225 -80 -12 -40 -11 -342 1 -405 5 -27 12 -62 14 -76 13 -73 71
-199 128 -279 166 -232 409 -358 687 -358 408 0 749 288 826 698 10 56 11 260
1 314 -9 50 -36 113 -66 152 -9 12 -23 32 -31 44 -8 13 -24 35 -36 49 -11 14
-187 247 -390 516 -202 270 -374 497 -381 505 -24 30 -229 302 -262 348 -33
47 -33 48 -29 137 4 72 11 102 33 150 36 75 109 149 183 183 50 24 69 27 152
27 83 -1 102 -4 152 -28 79 -39 143 -104 181 -185 31 -67 31 -68 34 -251 2
-197 6 -213 59 -247 21 -14 51 -17 173 -16 178 0 211 12 231 82 12 42 5 372
-9 440 -80 389 -408 667 -796 675 -60 2 -119 1 -130 -1z"/>
<path d="M10314 3590 c-12 -5 -31 -22 -43 -38 l-21 -30 0 -1726 0 -1726 29
-32 29 -33 162 -3 c176 -4 191 0 227 55 17 25 18 78 18 767 l0 741 368 3 367
2 0 -27 c1 -16 1 -348 1 -740 l0 -712 22 -33 c13 -18 34 -38 47 -45 30 -15
296 -18 334 -3 14 5 35 24 46 42 20 33 20 52 20 1746 0 1899 5 1758 -65 1788
-24 10 -76 14 -172 14 -119 0 -142 -3 -170 -20 -64 -39 -62 -3 -62 -804 0
-400 -2 -730 -5 -733 -4 -4 -580 -7 -706 -4 l-25 1 0 726 c0 461 -4 738 -10
758 -5 16 -25 41 -44 53 -32 21 -44 23 -180 22 -80 0 -156 -4 -167 -9z"/>
<path d="M13500 3579 c-73 -33 -124 -91 -137 -158 -8 -39 -7 -3290 1 -3332 3
-20 18 -47 32 -60 24 -23 33 -24 179 -27 169 -4 198 3 232 55 17 25 18 80 19
762 1 405 2 739 3 744 0 4 93 7 205 7 175 0 213 -3 267 -20 118 -37 211 -130
246 -249 15 -49 17 -123 18 -636 1 -430 4 -586 13 -602 6 -12 24 -31 38 -42
24 -19 40 -21 176 -21 167 0 196 8 224 62 14 28 16 95 16 618 0 322 -3 606 -7
631 -23 168 -101 336 -209 453 l-36 40 32 35 c18 20 36 38 40 41 4 3 30 43 57
88 46 76 91 193 105 267 3 17 8 44 11 60 7 38 7 534 -1 583 -52 349 -313 629
-653 702 -74 16 -137 18 -456 19 -353 1 -372 0 -415 -20z m744 -453 c147 -15
287 -150 313 -302 14 -81 9 -451 -7 -509 -35 -124 -118 -215 -235 -256 -51
-18 -85 -20 -266 -21 -115 -1 -212 2 -216 6 -5 4 -8 249 -8 544 l0 537 24 5
c31 6 328 3 395 -4z"/>
<path d="M16564 3582 c-63 -40 -59 53 -58 -1448 1 -753 4 -1387 7 -1409 44
-283 210 -512 463 -639 129 -64 208 -81 379 -80 139 1 156 3 241 32 154 51
242 106 357 225 113 115 183 253 217 422 16 84 17 187 16 1467 l-1 1378 -33
32 -32 33 -154 3 c-126 3 -160 0 -185 -12 -65 -34 -61 61 -61 -1428 0 -856 -4
-1369 -10 -1396 -26 -111 -107 -213 -204 -258 -66 -30 -85 -34 -157 -35 -136
-1 -254 66 -325 187 -53 90 -51 53 -52 1340 -1 660 -1 1274 -2 1367 l0 167
-31 33 -31 32 -156 3 c-140 2 -160 1 -188 -16z"/>
<path d="M19818 3586 c-77 -28 -127 -78 -148 -151 -8 -30 -10 -465 -8 -1660
l3 -1621 35 -49 c25 -35 52 -59 90 -78 l54 -27 386 1 c368 0 389 1 476 24 315
80 549 328 619 655 25 120 19 593 -9 725 -26 119 -106 264 -202 365 l-33 35
40 40 c93 93 177 255 205 395 18 95 18 593 -1 682 -21 100 -69 215 -121 294
-47 70 -150 179 -214 226 -96 71 -243 130 -364 147 -117 16 -761 14 -808 -3z
m718 -459 c147 -10 275 -116 321 -265 22 -72 20 -499 -2 -567 -41 -118 -125
-202 -243 -240 -38 -13 -97 -17 -266 -18 l-216 -2 -1 35 c0 19 0 265 0 545
l-1 510 94 5 c94 5 203 4 314 -3z m59 -1572 c131 -34 230 -135 266 -269 14
-52 13 -504 -1 -542 -47 -131 -134 -218 -255 -256 -16 -6 -130 -12 -252 -14
l-223 -4 0 23 c-1 33 -1 1029 -1 1055 l1 22 203 0 c151 0 218 -4 262 -15z"/>
</g>
</svg>
