<?xml version="1.0" encoding="UTF-8" standalone="no"?>
<!-- Generated by IcoMoon.io -->

<svg
   version="1.1"
   width="384"
   height="448"
   viewBox="0 0 384 448"
   id="svg51"
   sodipodi:docname="check-circle.svg"
   inkscape:version="1.2.2 (b0a8486541, 2022-12-01)"
   xmlns:inkscape="http://www.inkscape.org/namespaces/inkscape"
   xmlns:sodipodi="http://sodipodi.sourceforge.net/DTD/sodipodi-0.dtd"
   xmlns="http://www.w3.org/2000/svg"
   xmlns:svg="http://www.w3.org/2000/svg">
  <defs
     id="defs55" />
  <sodipodi:namedview
     id="namedview53"
     pagecolor="#ffffff"
     bordercolor="#000000"
     borderopacity="0.25"
     inkscape:showpageshadow="2"
     inkscape:pageopacity="0.0"
     inkscape:pagecheckerboard="0"
     inkscape:deskcolor="#d1d1d1"
     showgrid="false"
     inkscape:zoom="1.8794643"
     inkscape:cx="119.981"
     inkscape:cy="224.26603"
     inkscape:window-width="1920"
     inkscape:window-height="1001"
     inkscape:window-x="0"
     inkscape:window-y="0"
     inkscape:window-maximized="1"
     inkscape:current-layer="svg51" />
  <g
     id="icomoon-ignore" />
  <path
     fill="#000"
     d="M321 183.5c0-4.25-1.5-8.5-4.5-11.5l-22.75-22.5c-3-3-7-4.75-11.25-4.75s-8.25 1.75-11.25 4.75l-102 101.75-56.5-56.5c-3-3-7-4.75-11.25-4.75s-8.25 1.75-11.25 4.75l-22.75 22.5c-3 3-4.5 7.25-4.5 11.5s1.5 8.25 4.5 11.25l90.5 90.5c3 3 7.25 4.75 11.25 4.75 4.25 0 8.5-1.75 11.5-4.75l135.75-135.75c3-3 4.5-7 4.5-11.25zM384 224c0 106-86 192-192 192s-192-86-192-192 86-192 192-192 192 86 192 192z"
     id="path49"
     style="fill:#1cb068;fill-opacity:1" />
</svg>
