<!-- Generated by IcoMoon.io -->
<svg version="1.1" xmlns="http://www.w3.org/2000/svg" width="352" height="448" viewBox="0 0 352 448">
<g id="icomoon-ignore">
</g>
<path fill="#000" d="M96 184v48c0 13.25-10.75 24-24 24h-48c-13.25 0-24-10.75-24-24v-48c0-13.25 10.75-24 24-24h48c13.25 0 24 10.75 24 24zM224 184v48c0 13.25-10.75 24-24 24h-48c-13.25 0-24-10.75-24-24v-48c0-13.25 10.75-24 24-24h48c13.25 0 24 10.75 24 24zM352 184v48c0 13.25-10.75 24-24 24h-48c-13.25 0-24-10.75-24-24v-48c0-13.25 10.75-24 24-24h48c13.25 0 24 10.75 24 24z"></path>
</svg>
