<?xml version="1.0" encoding="UTF-8" standalone="no"?>
<svg
   version="1.1"
   width="512"
   height="512"
   viewBox="0 0 512 512"
   id="svg4185"
   sodipodi:docname="instagram.svg"
   inkscape:version="1.2.2 (b0a8486541, 2022-12-01)"
   xmlns:inkscape="http://www.inkscape.org/namespaces/inkscape"
   xmlns:sodipodi="http://sodipodi.sourceforge.net/DTD/sodipodi-0.dtd"
   xmlns="http://www.w3.org/2000/svg"
   xmlns:svg="http://www.w3.org/2000/svg">
  <defs
     id="defs4189" />
  <sodipodi:namedview
     id="namedview4187"
     pagecolor="#ffffff"
     bordercolor="#000000"
     borderopacity="0.25"
     inkscape:showpageshadow="2"
     inkscape:pageopacity="0.0"
     inkscape:pagecheckerboard="0"
     inkscape:deskcolor="#d1d1d1"
     showgrid="false"
     inkscape:zoom="1.6445312"
     inkscape:cx="235.02138"
     inkscape:cy="256.30404"
     inkscape:window-width="1920"
     inkscape:window-height="1001"
     inkscape:window-x="0"
     inkscape:window-y="0"
     inkscape:window-maximized="1"
     inkscape:current-layer="svg4185" />
  <g
     id="icomoon-ignore" />
  <path
     d="M256 98.582c51.298 0 57.372 0.225 77.546 1.125 18.75 0.825 28.874 3.974 35.624 6.6 8.924 3.45 15.374 7.65 22.048 14.324 6.75 6.75 10.874 13.124 14.4 22.048 2.625 6.75 5.774 16.95 6.6 35.624 0.9 20.249 1.125 26.324 1.125 77.546s-0.225 57.372-1.125 77.546c-0.825 18.75-3.974 28.874-6.6 35.624-3.45 8.924-7.65 15.374-14.324 22.048-6.75 6.75-13.124 10.874-22.048 14.4-6.75 2.625-16.95 5.774-35.624 6.6-20.249 0.9-26.324 1.125-77.546 1.125s-57.372-0.225-77.546-1.125c-18.75-0.825-28.874-3.974-35.624-6.6-8.924-3.45-15.374-7.65-22.049-14.324-6.75-6.75-10.874-13.124-14.4-22.048-2.624-6.75-5.774-16.95-6.6-35.624-0.9-20.249-1.125-26.324-1.125-77.546s0.225-57.372 1.125-77.546c0.825-18.75 3.974-28.874 6.6-35.624 3.45-8.924 7.65-15.374 14.324-22.049 6.75-6.75 13.124-10.874 22.048-14.4 6.75-2.624 16.95-5.774 35.624-6.6 20.174-0.9 26.248-1.125 77.546-1.125zM256 64.010c-52.121 0-58.648 0.225-79.121 1.125-20.399 0.9-34.424 4.2-46.572 8.924-12.674 4.95-23.398 11.474-34.048 22.198-10.724 10.65-17.249 21.374-22.198 33.974-4.724 12.224-8.024 26.174-8.924 46.572-0.9 20.549-1.125 27.074-1.125 79.195s0.225 58.647 1.125 79.122c0.9 20.399 4.2 34.424 8.924 46.572 4.95 12.674 11.474 23.399 22.198 34.048 10.65 10.65 21.374 17.25 33.974 22.124 12.224 4.724 26.174 8.024 46.572 8.924 20.474 0.9 26.998 1.125 79.121 1.125s58.647-0.225 79.122-1.125c20.399-0.9 34.424-4.2 46.572-8.924 12.6-4.874 23.324-11.474 33.974-22.124s17.25-21.374 22.124-33.974c4.724-12.224 8.024-26.174 8.924-46.572 0.9-20.474 1.125-26.998 1.125-79.122s-0.225-58.648-1.125-79.121c-0.9-20.399-4.2-34.424-8.924-46.572-4.724-12.75-11.25-23.474-21.974-34.124-10.65-10.65-21.374-17.249-33.974-22.124-12.224-4.724-26.174-8.024-46.572-8.924-20.549-0.975-27.074-1.2-79.195-1.2v0z"
     id="path4179"
     style="fill:#1cb068;fill-opacity:1" />
  <path
     d="M256 157.38c-54.448 0-98.62 44.173-98.62 98.62s44.173 98.62 98.62 98.62 98.62-44.173 98.62-98.62c0-54.448-44.173-98.62-98.62-98.62zM256 319.972c-35.324 0-63.972-28.647-63.972-63.972s28.648-63.972 63.972-63.972c35.324 0 63.972 28.648 63.972 63.972s-28.647 63.972-63.972 63.972z"
     id="path4181"
     style="fill:#1cb068;fill-opacity:1" />
  <path
     d="M381.544 153.481c0 12.715-10.309 23.024-23.024 23.024s-23.024-10.309-23.024-23.024c0-12.715 10.309-23.024 23.024-23.024s23.024 10.309 23.024 23.024z"
     id="path4183"
     style="fill:#1cb068;fill-opacity:1" />
</svg>
