<?xml version="1.0" encoding="UTF-8" standalone="no"?>
<svg
   version="1.1"
   width="512"
   height="512"
   viewBox="0 0 512 512"
   id="svg7615"
   sodipodi:docname="youtube.svg"
   inkscape:version="1.2.2 (b0a8486541, 2022-12-01)"
   xmlns:inkscape="http://www.inkscape.org/namespaces/inkscape"
   xmlns:sodipodi="http://sodipodi.sourceforge.net/DTD/sodipodi-0.dtd"
   xmlns="http://www.w3.org/2000/svg"
   xmlns:svg="http://www.w3.org/2000/svg">
  <defs
     id="defs7619" />
  <sodipodi:namedview
     id="namedview7617"
     pagecolor="#ffffff"
     bordercolor="#000000"
     borderopacity="0.25"
     inkscape:showpageshadow="2"
     inkscape:pageopacity="0.0"
     inkscape:pagecheckerboard="0"
     inkscape:deskcolor="#d1d1d1"
     showgrid="false"
     inkscape:zoom="1.6445312"
     inkscape:cx="235.02138"
     inkscape:cy="256.30404"
     inkscape:window-width="1920"
     inkscape:window-height="1001"
     inkscape:window-x="0"
     inkscape:window-y="0"
     inkscape:window-maximized="1"
     inkscape:current-layer="svg7615" />
  <g
     id="icomoon-ignore" />
  <path
     d="M462.301 171.802c0 0-4.111-29.025-16.774-41.769-16.034-16.774-33.959-16.856-42.181-17.843-58.872-4.276-147.263-4.276-147.263-4.276h-0.165c0 0-88.391 0-147.263 4.276-8.222 0.987-26.148 1.069-42.181 17.843-12.662 12.744-16.691 41.769-16.691 41.769s-4.195 34.041-4.195 68.163v31.904c0 34.041 4.195 68.163 4.195 68.163s4.111 29.026 16.691 41.769c16.034 16.774 37.082 16.198 46.456 18.007 33.713 3.207 143.152 4.195 143.152 4.195s88.474-0.165 147.346-4.358c8.223-0.987 26.147-1.069 42.181-17.843 12.661-12.745 16.774-41.769 16.774-41.769s4.195-34.041 4.195-68.163v-31.904c-0.082-34.041-4.276-68.163-4.276-68.163zM212.503 310.596v-118.32l113.716 59.365-113.716 58.954z"
     id="path7613"
     style="fill:#1cb068;fill-opacity:1" />
</svg>
